<svg width="31" height="32" viewBox="0 0 31 32" fill="none" xmlns="http://www.w3.org/2000/svg">
<path d="M15.32 27.5C12.1 27.5 9.18001 25.47 8.06001 22.45C7.74001 21.61 7.57001 20.7 7.57001 19.75C7.57001 19.34 7.91001 19 8.32001 19C8.73001 19 9.07001 19.34 9.07001 19.75C9.07001 20.51 9.20001 21.24 9.46001 21.92C10.37 24.36 12.72 26 15.32 26C17.37 26 19.29 25 20.45 23.31C20.69 22.97 21.15 22.88 21.49 23.12C21.83 23.36 21.92 23.82 21.68 24.16C20.24 26.25 17.86 27.49 15.31 27.49L15.32 27.5Z" fill="currentColor"/>
<path d="M22.25 21.4302C22.25 21.4302 22.17 21.4302 22.12 21.4202C21.71 21.3502 21.44 20.9602 21.51 20.5602C21.55 20.3202 21.57 20.0602 21.57 19.7502C21.57 19.4202 21.54 19.0902 21.49 18.7902C21.01 15.7202 18.42 13.5002 15.32 13.5002C13.05 13.5002 10.94 14.7402 9.84 16.7302C9.64 17.0902 9.18 17.2202 8.82 17.0202C8.46 16.8202 8.33 16.3602 8.53 16.0002C9.9 13.5302 12.51 11.9902 15.33 11.9902C19.17 11.9902 22.39 14.7402 22.98 18.5302C23.04 18.9102 23.08 19.3202 23.08 19.7402C23.08 20.1302 23.05 20.4702 23 20.8002C22.94 21.1702 22.62 21.4202 22.26 21.4202L22.25 21.4302Z" fill="currentColor"/>
<path d="M22.32 21.4999C22.13 21.4999 21.94 21.4299 21.79 21.2799L20.79 20.2799C20.5 19.9899 20.5 19.5099 20.79 19.2199C21.08 18.9299 21.56 18.9299 21.85 19.2199L22.32 19.6899L22.79 19.2199C23.08 18.9299 23.56 18.9299 23.85 19.2199C24.14 19.5099 24.14 19.9899 23.85 20.2799L22.85 21.2799C22.7 21.4299 22.51 21.4999 22.32 21.4999Z" fill="currentColor"/>
<path d="M9.32001 21.4999C9.13001 21.4999 8.94001 21.4299 8.79001 21.2799L8.32001 20.8099L7.85001 21.2799C7.56001 21.5699 7.08001 21.5699 6.79001 21.2799C6.50001 20.9899 6.50001 20.5099 6.79001 20.2199L7.79001 19.2199C8.08001 18.9299 8.56001 18.9299 8.85001 19.2199L9.85001 20.2199C10.14 20.5099 10.14 20.9899 9.85001 21.2799C9.70001 21.4299 9.51001 21.4999 9.32001 21.4999Z" fill="currentColor"/>
<path d="M27.66 14.22C27.33 14.22 27 14.13 26.7 13.94L15.32 6.51L3.93999 13.94C3.15999 14.45 2.11999 14.26 1.56999 13.51L0.33999 11.84C0.0599897 11.45 -0.0600103 10.96 0.0299897 10.49C0.11999 10.02 0.38999 9.6 0.79999 9.34L14.91 0.12C15.16 -0.04 15.48 -0.04 15.73 0.12L29.85 9.33C30.25 9.59 30.53 10.01 30.61 10.48C30.69 10.95 30.58 11.44 30.3 11.83L29.07 13.51C28.73 13.97 28.2 14.22 27.66 14.22ZM15.32 1.65L1.60999 10.59C1.52999 10.64 1.50999 10.72 1.49999 10.75C1.48999 10.78 1.48999 10.87 1.53999 10.94L2.76999 12.61C2.84999 12.72 2.99999 12.74 3.10999 12.67L14.9 4.98C15.15 4.82 15.47 4.82 15.72 4.98L27.51 12.67C27.62 12.74 27.77 12.72 27.85 12.61L29.08 10.93C29.13 10.86 29.13 10.78 29.12 10.74C29.11 10.7 29.09 10.63 29.01 10.58L15.32 1.65Z" fill="currentColor"/>
<path d="M25.14 31.5002H5.50001C3.88001 31.5002 2.57001 30.2702 2.57001 28.7502V13.4102C2.57001 13.0002 2.91001 12.6602 3.32001 12.6602C3.73001 12.6602 4.07001 13.0002 4.07001 13.4102V28.7502C4.07001 29.4402 4.71001 30.0002 5.50001 30.0002H25.14C25.93 30.0002 26.57 29.4402 26.57 28.7502V13.4102C26.57 13.0002 26.91 12.6602 27.32 12.6602C27.73 12.6602 28.07 13.0002 28.07 13.4102V28.7502C28.07 30.2702 26.76 31.5002 25.14 31.5002Z" fill="currentColor"/>
<path d="M25.32 7.6C24.91 7.6 24.57 7.26 24.57 6.85V1.75C24.57 1.61 24.46 1.5 24.32 1.5H22.32C22.18 1.5 22.07 1.61 22.07 1.75V4.24C22.07 4.65 21.73 4.99 21.32 4.99C20.91 4.99 20.57 4.65 20.57 4.24V1.75C20.57 0.79 21.35 0 22.32 0H24.32C25.28 0 26.07 0.79 26.07 1.75V6.85C26.07 7.26 25.73 7.6 25.32 7.6Z" fill="currentColor"/>
</svg>
